<svg xmlns="http://www.w3.org/2000/svg" width="1200" height="630" viewBox="0 0 1200 630" role="img" aria-label="Misaka Sarina">
  <defs>
    <linearGradient id="bg" x1="0" y1="0" x2="1" y2="1">
      <stop offset="0" stop-color="#100b16"/>
      <stop offset="0.52" stop-color="#17111f"/>
      <stop offset="1" stop-color="#09070d"/>
    </linearGradient>
    <radialGradient id="pink" cx="0.18" cy="0.16" r="0.72">
      <stop offset="0" stop-color="#ff7ac8" stop-opacity="0.55"/>
      <stop offset="1" stop-color="#ff7ac8" stop-opacity="0"/>
    </radialGradient>
    <radialGradient id="cyan" cx="0.82" cy="0.18" r="0.62">
      <stop offset="0" stop-color="#91e7ff" stop-opacity="0.36"/>
      <stop offset="1" stop-color="#91e7ff" stop-opacity="0"/>
    </radialGradient>
  </defs>
  <rect width="1200" height="630" fill="url(#bg)"/>
  <rect width="1200" height="630" fill="url(#pink)"/>
  <rect width="1200" height="630" fill="url(#cyan)"/>
  <g opacity="0.12" stroke="#fff7fb" stroke-width="1">
    <path d="M0 90H1200M0 180H1200M0 270H1200M0 360H1200M0 450H1200M0 540H1200"/>
    <path d="M120 0V630M240 0V630M360 0V630M480 0V630M600 0V630M720 0V630M840 0V630M960 0V630M1080 0V630"/>
  </g>
  <rect x="76" y="76" width="1048" height="478" rx="42" fill="rgba(255,255,255,0.075)" stroke="rgba(255,255,255,0.18)"/>
  <circle cx="970" cy="158" r="72" fill="#ff7ac8" opacity="0.88"/>
  <circle cx="1018" cy="210" r="42" fill="#91e7ff" opacity="0.72"/>
  <text x="116" y="174" fill="#91e7ff" font-family="Inter, ui-sans-serif, system-ui, sans-serif" font-size="28" font-weight="800" letter-spacing="7">SIACONE ART</text>
  <text x="112" y="310" fill="#fff7fb" font-family="Inter, ui-sans-serif, system-ui, sans-serif" font-size="96" font-weight="900" letter-spacing="-8">Misaka Sarina</text>
  <text x="118" y="382" fill="#cab9c7" font-family="Inter, ui-sans-serif, system-ui, sans-serif" font-size="34" font-weight="600">Music creator / VOCALOID creator / digital project maker</text>
  <text x="118" y="468" fill="#ffd9ef" font-family="Inter, ui-sans-serif, system-ui, sans-serif" font-size="30" font-weight="700">msarina.moe</text>
</svg>
